# xmcd
#
# Track frame offsets: 
#        150
#        17805
#        42242
#        62250
#        79292
#        95802
#        112505
#        131635
#        147492
#        162975
#        183237
#        201230
#
# Disc length: 2946 seconds
#
# Revision: 2
# Processed by: cddbd v1.5.2PL0 Copyright (c) Steve Scherf et al.
# Submitted via: ExactAudioCopyFreeDBPlugin 1.0
#
DISCID=a00b800c
DTITLE=张信哲 - 知道
DYEAR=1992
DGENRE=Blues
TTITLE0=难以抗拒你容颜
TTITLE1=有你真的会快乐吗
TTITLE2=最想念的季节
TTITLE3=知道
TTITLE4=给我一些音乐
TTITLE5=珍藏我的爱情
TTITLE6=心爱宝贝
TTITLE7=让我忘记你的脸
TTITLE8=我们爱这个错
TTITLE9=相信相依
TTITLE10=想你的夜
TTITLE11=快乐悲伤
EXTD=
EXTT0=
EXTT1=
EXTT2=
EXTT3=
EXTT4=
EXTT5=
EXTT6=
EXTT7=
EXTT8=
EXTT9=
EXTT10=
EXTT11=
PLAYORDER=
